<svg width="20" height="21" viewBox="0 0 20 21" fill="none" xmlns="http://www.w3.org/2000/svg">
<path d="M13.5827 18.0293C13.1405 19.6534 11.6562 20.848 9.89192 20.848C8.12774 20.8479 6.64334 19.6534 6.20117 18.0293H8.30854C8.64193 18.5523 9.22569 18.9003 9.89192 18.9004C10.5582 18.9004 11.1419 18.5523 11.4753 18.0293H13.5827Z" fill="black" fill-opacity="0.56"/>
<path d="M3.86248 11.7473C3.86248 11.8245 3.85833 11.9017 3.84917 11.9784C3.78267 12.5348 3.54894 12.989 3.38889 13.2632C3.21504 13.561 3.01074 13.8375 2.84873 14.0497C2.64541 14.3159 2.55411 14.4256 2.40747 14.6222C2.34943 14.7 2.3068 14.7607 2.27529 14.8085C2.25054 14.8461 2.23904 14.8664 2.2363 14.8713L2.17829 14.9778C2.15934 15.0105 2.13919 15.0424 2.11837 15.0739L17.2315 15.0739C17.0516 14.8095 16.7863 14.4065 16.5382 13.9717C16.2951 13.5456 15.8775 12.7748 15.765 12.0431C15.75 11.9452 15.7422 11.8463 15.7422 11.7473C15.7422 7.76552 15.6282 5.84779 14.7066 4.40479C14.2343 3.6655 13.676 3.08121 12.9406 2.66924C12.2046 2.25696 11.1674 1.94748 9.63498 1.94744V-0.000169754C13.242 -9.91821e-05 15.1422 1.4684 16.348 3.35585C17.6366 5.37303 17.6898 7.93272 17.6898 11.7473C17.7908 12.4048 18.6193 13.6646 18.9204 14.0963C19.2906 14.6716 19.9618 15.3434 18.9204 17.0215L0.572067 17.0215C-0.177168 16.0146 -0.177128 15.0071 0.494087 14.0002C0.829781 13.3291 1.83647 12.4032 1.91486 11.7473C1.91486 8.03391 2.20745 5.42144 3.25766 3.35585C4.2009 1.50086 6.10435 -0.000169754 9.63498 -0.000169754V1.94744C8.14876 1.94744 7.14466 2.2619 6.46153 2.66258C5.78414 3.05993 5.317 3.60361 4.99416 4.23836C4.16954 5.86026 3.86248 8.06417 3.86248 11.7473Z" fill="black" fill-opacity="0.56"/>
</svg>
