<svg width="24" height="24" viewBox="0 0 24 24" fill="none" xmlns="http://www.w3.org/2000/svg">
<path d="M18.0142 3.99756C16.9092 3.99756 16.0142 4.89256 16.0142 5.99756V17.9976C16.0142 19.1026 16.9092 19.9976 18.0142 19.9976H20.0142C21.1192 19.9976 22.0142 19.1026 22.0142 17.9976V5.99756C22.0142 4.89256 21.1192 3.99756 20.0142 3.99756H18.0142ZM11.0142 7.99756C9.90916 7.99756 9.01416 8.89256 9.01416 9.99756V17.9976C9.01416 19.1026 9.90916 19.9976 11.0142 19.9976H13.0142C14.1192 19.9976 15.0142 19.1026 15.0142 17.9976V9.99756C15.0142 8.89256 14.1192 7.99756 13.0142 7.99756H11.0142ZM4.01416 11.9976C2.90916 11.9976 2.01416 12.8926 2.01416 13.9976V17.9976C2.01416 19.1026 2.90916 19.9976 4.01416 19.9976H6.01416C7.11916 19.9976 8.01416 19.1026 8.01416 17.9976V13.9976C8.01416 12.8926 7.11916 11.9976 6.01416 11.9976H4.01416Z" fill="#CCCCCC"/>
</svg>
