<svg width="20" height="20" viewBox="0 0 20 20" fill="none" xmlns="http://www.w3.org/2000/svg">
<g clip-path="url(#clip0_384_2304)">
<path d="M16.6666 2.50016H15.8333V1.66683C15.8333 1.2085 15.4583 0.833496 15 0.833496C14.5416 0.833496 14.1666 1.2085 14.1666 1.66683V2.50016H5.83329V1.66683C5.83329 1.2085 5.45829 0.833496 4.99996 0.833496C4.54163 0.833496 4.16663 1.2085 4.16663 1.66683V2.50016H3.33329C2.41663 2.50016 1.66663 3.25016 1.66663 4.16683V17.5002C1.66663 18.4168 2.41663 19.1668 3.33329 19.1668H16.6666C17.5833 19.1668 18.3333 18.4168 18.3333 17.5002V4.16683C18.3333 3.25016 17.5833 2.50016 16.6666 2.50016ZM15.8333 17.5002H4.16663C3.70829 17.5002 3.33329 17.1252 3.33329 16.6668V6.66683H16.6666V16.6668C16.6666 17.1252 16.2916 17.5002 15.8333 17.5002Z" fill="black" fill-opacity="0.56"/>
</g>
<defs>
<clipPath id="clip0_384_2304">
<rect width="20" height="20" fill="white"/>
</clipPath>
</defs>
</svg>
