<svg width="21" height="21" viewBox="0 0 21 21" fill="none" xmlns="http://www.w3.org/2000/svg">
<path d="M1.50104 14.3C1.18438 13.6167 0.946875 12.9167 0.788542 12.2C0.630208 11.4833 0.551042 10.75 0.551042 10C0.551042 8.61667 0.813542 7.31667 1.33854 6.1C1.86354 4.88333 2.57604 3.825 3.47604 2.925C4.37604 2.025 5.43437 1.3125 6.65104 0.7875C7.86771 0.2625 9.16771 0 10.551 0C11.9344 0 13.2344 0.2625 14.451 0.7875C15.6677 1.3125 16.726 2.025 17.626 2.925C18.526 3.825 19.2385 4.88333 19.7635 6.1C20.2885 7.31667 20.551 8.61667 20.551 10C20.551 11.3833 20.2885 12.6833 19.7635 13.9C19.2385 15.1167 18.526 16.175 17.626 17.075C16.726 17.975 15.6677 18.6875 14.451 19.2125C13.2344 19.7375 11.9344 20 10.551 20C9.80104 20 9.06771 19.9208 8.35104 19.7625C7.63438 19.6042 6.93438 19.3667 6.25104 19.05L1.30104 20.5C0.917708 20.6167 0.584375 20.5333 0.301042 20.25C0.0177083 19.9667 -0.065625 19.6333 0.0510417 19.25L1.50104 14.3ZM9.55104 11V13C9.55104 13.2833 9.64688 13.5208 9.83854 13.7125C10.0302 13.9042 10.2677 14 10.551 14C10.8344 14 11.0719 13.9042 11.2635 13.7125C11.4552 13.5208 11.551 13.2833 11.551 13V11H13.551C13.8344 11 14.0719 10.9042 14.2635 10.7125C14.4552 10.5208 14.551 10.2833 14.551 10C14.551 9.71667 14.4552 9.47917 14.2635 9.2875C14.0719 9.09583 13.8344 9 13.551 9H11.551V7C11.551 6.71667 11.4552 6.47917 11.2635 6.2875C11.0719 6.09583 10.8344 6 10.551 6C10.2677 6 10.0302 6.09583 9.83854 6.2875C9.64688 6.47917 9.55104 6.71667 9.55104 7V9H7.55104C7.26771 9 7.03021 9.09583 6.83854 9.2875C6.64687 9.47917 6.55104 9.71667 6.55104 10C6.55104 10.2833 6.64687 10.5208 6.83854 10.7125C7.03021 10.9042 7.26771 11 7.55104 11H9.55104Z" fill="black"/>
</svg>
