<svg width="36" height="36" viewBox="0 0 36 36" fill="none" xmlns="http://www.w3.org/2000/svg">
<g clip-path="url(#clip0_462_3059)">
<path d="M18 33.75C26.6985 33.75 33.75 26.6985 33.75 18C33.75 9.30152 26.6985 2.25 18 2.25C9.30152 2.25 2.25 9.30152 2.25 18C2.25 26.6985 9.30152 33.75 18 33.75Z" fill="#FFC84D"/>
<path d="M8.10261 17.2199C7.50141 17.0759 6.92991 17.5844 7.00731 18.1982C7.69851 23.6567 12.3542 27.8777 17.9999 27.8777C23.6456 27.8777 28.3013 23.6558 28.9925 18.1982C29.0699 17.5844 28.4984 17.0759 27.8972 17.2199C24.9911 17.9165 21.6107 18.317 17.9999 18.317C14.3891 18.317 11.0087 17.9165 8.10261 17.2199Z" fill="#FF6D00"/>
<path d="M10.9747 14.5779C10.7524 14.6877 10.4968 14.4951 10.5463 14.2521C10.8208 12.903 11.9818 11.8896 13.3723 11.8896C14.7628 11.8896 15.9238 12.903 16.1983 14.2521C16.2478 14.4951 15.9922 14.6877 15.7699 14.5779C15.2848 14.3385 14.4586 14.037 13.3723 14.037C12.286 14.037 11.4598 14.3385 10.9747 14.5779Z" fill="black"/>
<path d="M25.0255 14.5779C25.2478 14.6877 25.5034 14.4951 25.4539 14.2521C25.1794 12.903 24.0184 11.8896 22.6279 11.8896C21.2374 11.8896 20.0764 12.903 19.8019 14.2521C19.7524 14.4951 20.008 14.6877 20.2303 14.5779C20.7154 14.3385 21.5416 14.037 22.6279 14.037C23.7142 14.037 24.5404 14.3385 25.0255 14.5779Z" fill="black"/>
<path d="M17.9443 20.9834C21.6361 20.9834 25.0516 19.5893 27.8461 17.2268C24.9499 17.9171 21.592 18.3167 18.0001 18.3167C14.347 18.3167 10.9306 17.9063 8.00195 17.1953C10.8037 19.5776 14.2354 20.9834 17.9443 20.9834Z" fill="white"/>
</g>
<defs>
<clipPath id="clip0_462_3059">
<rect width="36" height="36" fill="white"/>
</clipPath>
</defs>
</svg>
