<svg width="36" height="36" viewBox="0 0 36 36" fill="none" xmlns="http://www.w3.org/2000/svg">
<g clip-path="url(#clip0_462_3068)">
<path d="M18 33.75C26.6985 33.75 33.75 26.6985 33.75 18C33.75 9.30152 26.6985 2.25 18 2.25C9.30152 2.25 2.25 9.30152 2.25 18C2.25 26.6985 9.30152 33.75 18 33.75Z" fill="#FFC84D"/>
<path d="M13.8799 16.8804C14.9307 16.8804 15.7825 16.0286 15.7825 14.9778C15.7825 13.927 14.9307 13.0752 13.8799 13.0752C12.8291 13.0752 11.9773 13.927 11.9773 14.9778C11.9773 16.0286 12.8291 16.8804 13.8799 16.8804Z" fill="black"/>
<path d="M22.1201 16.8804C23.1709 16.8804 24.0227 16.0286 24.0227 14.9778C24.0227 13.927 23.1709 13.0752 22.1201 13.0752C21.0694 13.0752 20.2175 13.927 20.2175 14.9778C20.2175 16.0286 21.0694 16.8804 22.1201 16.8804Z" fill="black"/>
<path d="M18 22.0671C15.309 22.0671 13.3173 21.5838 12.132 21.1842C11.6064 21.0069 11.1726 21.6585 11.5605 22.0554C12.7332 23.256 15.2397 24.2955 18.0009 24.2955C20.7621 24.2955 23.2686 23.256 24.4413 22.0554C24.8292 21.6585 24.3954 21.0078 23.8698 21.1842C22.6836 21.5838 20.6919 22.0671 18.0018 22.0671H18Z" fill="#FF6D00"/>
</g>
<defs>
<clipPath id="clip0_462_3068">
<rect width="36" height="36" fill="white"/>
</clipPath>
</defs>
</svg>
