<svg width="36" height="36" viewBox="0 0 36 36" fill="none" xmlns="http://www.w3.org/2000/svg">
<g clip-path="url(#clip0_462_3106)">
<path d="M18 33.75C26.6985 33.75 33.75 26.6985 33.75 18C33.75 9.30152 26.6985 2.25 18 2.25C9.30152 2.25 2.25 9.30152 2.25 18C2.25 26.6985 9.30152 33.75 18 33.75Z" fill="#FFC84D"/>
<path d="M11.0584 16.1029C10.8361 15.9931 10.5805 16.1857 10.63 16.4287C10.9045 17.7778 12.0655 18.7912 13.456 18.7912C14.8465 18.7912 16.0075 17.7778 16.282 16.4287C16.3315 16.1857 16.0759 15.9931 15.8536 16.1029C15.3685 16.3423 14.5423 16.6438 13.456 16.6438C12.3697 16.6438 11.5435 16.3423 11.0584 16.1029Z" fill="black"/>
<path d="M25.1092 16.1029C25.3315 15.9931 25.5871 16.1857 25.5376 16.4287C25.2631 17.7778 24.1021 18.7912 22.7116 18.7912C21.3211 18.7912 20.1601 17.7778 19.8856 16.4287C19.8361 16.1857 20.0917 15.9931 20.314 16.1029C20.7991 16.3423 21.6253 16.6438 22.7116 16.6438C23.7979 16.6438 24.6241 16.3423 25.1092 16.1029Z" fill="black"/>
<path d="M23.4423 10.5276C22.4163 10.0488 21.9339 9.53756 21.5325 9.08126C21.3012 8.81846 20.9736 8.93906 20.9763 9.31346C20.9826 10.1226 21.4821 11.2215 22.8267 11.8488C24.1713 12.4752 25.3341 12.1521 25.9578 11.6364C26.2467 11.3979 26.1288 11.0685 25.7778 11.0604C25.1703 11.0469 24.4683 11.0055 23.4423 10.5276Z" fill="black"/>
<path d="M12.5576 10.5276C13.5836 10.0488 14.066 9.53756 14.4674 9.08126C14.6987 8.81846 15.0263 8.93906 15.0236 9.31346C15.0173 10.1226 14.5178 11.2215 13.1732 11.8488C11.8286 12.4752 10.6658 12.1521 10.0421 11.6364C9.7532 11.3979 9.8711 11.0685 10.2221 11.0604C10.8296 11.0469 11.5316 11.0055 12.5576 10.5276Z" fill="black"/>
<path d="M18 26.9248C19.2362 26.9248 20.2383 25.9227 20.2383 24.6865C20.2383 23.4504 19.2362 22.4482 18 22.4482C16.7638 22.4482 15.7617 23.4504 15.7617 24.6865C15.7617 25.9227 16.7638 26.9248 18 26.9248Z" fill="#FF6D00"/>
<path d="M32.7303 26.3618C33.0714 24.9506 32.4801 23.4278 31.158 22.6646C29.5506 21.7367 27.4941 22.2875 26.5662 23.8949C26.2539 24.4358 26.1225 25.0271 26.1288 25.6094L21.7197 24.2297L25.119 27.3581C24.6114 27.6434 24.165 28.0529 23.8527 28.5938C22.9248 30.2012 23.4756 32.2577 25.083 33.1856C26.4042 33.9488 28.0188 33.6995 29.0709 32.6987C30.7935 33.5312 32.8878 32.9219 33.8589 31.2389C34.8309 29.5559 34.3125 27.4373 32.7303 26.3618Z" fill="#E5E8EB"/>
</g>
<defs>
<clipPath id="clip0_462_3106">
<rect width="36" height="36" fill="white"/>
</clipPath>
</defs>
</svg>
