<svg width="36" height="36" viewBox="0 0 36 36" fill="none" xmlns="http://www.w3.org/2000/svg">
<g clip-path="url(#clip0_462_3084)">
<path d="M18 33.75C26.6985 33.75 33.75 26.6985 33.75 18C33.75 9.30152 26.6985 2.25 18 2.25C9.30152 2.25 2.25 9.30152 2.25 18C2.25 26.6985 9.30152 33.75 18 33.75Z" fill="#FFC84D"/>
<path d="M11.0584 18.6107C10.8361 18.5009 10.5805 18.6935 10.63 18.9365C10.9045 20.2856 12.0655 21.299 13.456 21.299C14.8465 21.299 16.0075 20.2856 16.282 18.9365C16.3315 18.6935 16.0759 18.5009 15.8536 18.6107C15.3685 18.8501 14.5423 19.1516 13.456 19.1516C12.3697 19.1516 11.5435 18.8501 11.0584 18.6107Z" fill="black"/>
<path d="M25.1092 18.6107C25.3315 18.5009 25.5871 18.6935 25.5376 18.9365C25.2631 20.2856 24.1021 21.299 22.7116 21.299C21.3211 21.299 20.1601 20.2856 19.8856 18.9365C19.8361 18.6935 20.0917 18.5009 20.314 18.6107C20.7991 18.8501 21.6253 19.1516 22.7116 19.1516C23.7979 19.1516 24.6241 18.8501 25.1092 18.6107Z" fill="black"/>
<path d="M23.4423 13.0354C22.4163 12.5566 21.9339 12.0454 21.5325 11.5891C21.3012 11.3263 20.9736 11.4469 20.9763 11.8213C20.9826 12.6304 21.4821 13.7293 22.8267 14.3566C24.1713 14.983 25.3341 14.6599 25.9578 14.1442C26.2467 13.9057 26.1288 13.5763 25.7778 13.5682C25.1703 13.5547 24.4683 13.5133 23.4423 13.0354Z" fill="black"/>
<path d="M12.5576 13.0354C13.5836 12.5566 14.066 12.0454 14.4674 11.5891C14.6987 11.3263 15.0263 11.4469 15.0236 11.8213C15.0173 12.6304 14.5178 13.7293 13.1732 14.3566C11.8286 14.983 10.6658 14.6599 10.0421 14.1442C9.7532 13.9057 9.8711 13.5763 10.2221 13.5682C10.8296 13.5547 11.5316 13.5133 12.5576 13.0354Z" fill="black"/>
<path d="M20.4274 27.0002H15.5719C15.0742 27.0002 14.6719 26.597 14.6719 26.1002C14.6719 25.6034 15.0742 25.2002 15.5719 25.2002H20.4274C20.9251 25.2002 21.3274 25.6034 21.3274 26.1002C21.3274 26.597 20.9251 27.0002 20.4274 27.0002Z" fill="#FF6D00"/>
</g>
<defs>
<clipPath id="clip0_462_3084">
<rect width="36" height="36" fill="white"/>
</clipPath>
</defs>
</svg>
