<svg width="36" height="36" viewBox="0 0 36 36" fill="none" xmlns="http://www.w3.org/2000/svg">
<g clip-path="url(#clip0_462_2831)">
<path d="M18 33.75C26.6985 33.75 33.75 26.6985 33.75 18C33.75 9.30152 26.6985 2.25 18 2.25C9.30152 2.25 2.25 9.30152 2.25 18C2.25 26.6985 9.30152 33.75 18 33.75Z" fill="#FFC84D"/>
<path d="M13.7564 16.1584C14.7973 16.1584 15.641 15.0592 15.641 13.7032C15.641 12.3473 14.7973 11.248 13.7564 11.248C12.7156 11.248 11.8718 12.3473 11.8718 13.7032C11.8718 15.0592 12.7156 16.1584 13.7564 16.1584Z" fill="black"/>
<path d="M22.2435 16.1584C23.2843 16.1584 24.1281 15.0592 24.1281 13.7032C24.1281 12.3473 23.2843 11.248 22.2435 11.248C21.2027 11.248 20.3589 12.3473 20.3589 13.7032C20.3589 15.0592 21.2027 16.1584 22.2435 16.1584Z" fill="black"/>
<path d="M26.5996 19.2695C27.2593 19.2695 27.7921 19.8599 27.6706 20.5079C26.9479 24.3761 22.8934 27.338 18.0001 27.338C13.1068 27.338 9.0523 24.3761 8.3296 20.5079C8.2081 19.8599 8.7418 19.2695 9.4006 19.2695H26.5996Z" fill="#FF6D00"/>
<path d="M17.9999 21.5492C21.2084 21.5492 24.1775 20.7032 26.5994 19.2695H9.40039C11.8223 20.7032 14.7914 21.5492 17.9999 21.5492Z" fill="white"/>
</g>
<defs>
<clipPath id="clip0_462_2831">
<rect width="36" height="36" fill="white"/>
</clipPath>
</defs>
</svg>
