<svg width="24" height="24" viewBox="0 0 24 24" fill="none" xmlns="http://www.w3.org/2000/svg">
<path d="M12.0012 3.99805C9.04217 3.99805 6.54917 5.45207 4.50117 7.84206C3.80117 8.65906 3.18716 9.53204 2.68915 10.404C2.38715 10.931 2.20316 11.3401 2.09516 11.5921C1.98716 11.8431 1.98716 12.153 2.09516 12.404C2.20316 12.656 2.38715 13.0641 2.68915 13.5921C3.18716 14.4641 3.80117 15.337 4.50117 16.154C4.80217 16.505 5.12916 16.854 5.45216 17.162L4.33115 18.274C3.94115 18.664 3.92016 19.307 4.31016 19.697C4.70116 20.088 5.32916 20.107 5.72016 19.717L10.5952 14.81L14.8452 10.5921L19.7202 5.71707C20.1102 5.32607 20.1102 4.67005 19.7202 4.27905C19.5252 4.08405 19.2572 3.99805 19.0012 3.99805C18.7452 3.99805 18.4792 4.12107 18.2832 4.31607L17.0302 5.58606C15.5372 4.59206 13.7992 3.99805 12.0012 3.99805ZM12.0012 5.99804C13.2502 5.99804 14.4842 6.37606 15.5692 7.02606L14.0562 8.56106C13.4582 8.21606 12.7132 7.99804 12.0012 7.99804C9.79217 7.99804 8.00117 9.78904 8.00117 11.998C8.00117 12.715 8.23616 13.442 8.58216 14.039L6.85316 15.734C6.55816 15.456 6.27017 15.1551 6.00117 14.8421C5.38917 14.1281 4.87816 13.3601 4.43916 12.5921C4.28416 12.3211 4.21717 12.181 4.12617 11.998C4.21717 11.814 4.28416 11.675 4.43916 11.404C4.87816 10.636 5.38917 9.86804 6.00117 9.15404C7.70317 7.16905 9.71017 5.99804 12.0012 5.99804ZM19.9392 8.84206C19.6872 8.79406 19.4172 8.84204 19.1892 8.99804C18.7322 9.30904 18.6272 9.91704 18.9392 10.373C19.2782 10.871 19.5722 11.3821 19.8142 11.8421C19.8522 11.9141 19.8452 11.937 19.8762 11.998C19.7852 12.181 19.7182 12.3211 19.5642 12.5921C19.1242 13.3601 18.6132 14.1281 18.0012 14.8421C16.2992 16.827 14.2922 17.998 12.0012 17.998C11.7532 17.998 11.2272 17.949 10.7202 17.873C10.1742 17.791 9.67717 18.17 9.59517 18.717C9.51317 19.263 9.89216 19.76 10.4392 19.842C11.0452 19.933 11.6202 19.998 12.0012 19.998C14.9602 19.998 17.4532 18.544 19.5012 16.154C20.2022 15.337 20.8152 14.4641 21.3142 13.5921C21.6152 13.0641 21.7992 12.656 21.9072 12.404C22.0152 12.153 22.0152 11.8431 21.9072 11.5921C21.6772 11.0541 21.2552 10.217 20.5952 9.24804C20.4392 9.02004 20.1902 8.88906 19.9392 8.84206ZM12.0012 9.99804C12.1552 9.99804 12.4022 10.0311 12.5472 10.0651L10.0832 12.516C10.0022 12.294 10.0012 12.151 10.0012 11.998C10.0012 10.893 10.8972 9.99804 12.0012 9.99804Z" fill="#B2B2B2"/>
</svg>
