<svg width="14" height="14" viewBox="0 0 14 14" fill="none" xmlns="http://www.w3.org/2000/svg">
<path d="M6.99869 1.1748C4.42153 1.1748 2.33203 3.2643 2.33203 5.84147C2.33203 7.86389 3.64337 10.1651 5.41261 12.0761C5.46978 12.1374 5.51645 12.1852 5.57653 12.24C6.07761 12.6886 6.59677 12.8473 6.99869 12.8415C7.00394 12.8415 7.01269 12.8415 7.01678 12.8415C7.43561 12.8415 8.02593 12.653 8.58477 12.0942C10.2823 10.3967 11.6653 7.89364 11.6653 5.84147C11.6653 3.2643 9.57585 1.1748 6.99869 1.1748ZM6.99869 4.09147C7.96527 4.09147 8.74869 4.87489 8.74869 5.84147C8.74869 6.80805 7.96527 7.59147 6.99869 7.59147C6.03211 7.59147 5.24869 6.80805 5.24869 5.84147C5.24869 4.87489 6.03211 4.09147 6.99869 4.09147Z" fill="#2A343D"/>
</svg>
