<svg width="16" height="16" viewBox="0 0 16 16" fill="none" xmlns="http://www.w3.org/2000/svg">
<path d="M7.40644 1.47443C9.37234 -0.491476 12.5598 -0.491476 14.5257 1.47443C16.4914 3.44031 16.4914 6.62696 14.5257 8.59284L8.59284 14.5257C6.62696 16.4914 3.44031 16.4914 1.47443 14.5257C-0.491476 12.5598 -0.491476 9.37234 1.47443 7.40644L7.40644 1.47443ZM2.66083 8.59284C1.35023 9.90344 1.35023 12.0287 2.66083 13.3393C3.97141 14.6497 6.09586 14.6497 7.40644 13.3393L9.77924 10.9656L5.03363 6.22004L2.66083 8.59284ZM13.3393 2.66083C12.0287 1.35023 9.90344 1.35023 8.59284 2.66083L6.22004 5.03363L10.9656 9.77924L13.3393 7.40644C14.6497 6.09586 14.6497 3.97141 13.3393 2.66083Z" fill="#3A3A3A"/>
<path d="M13.3393 2.66083C12.0287 1.35023 9.90344 1.35023 8.59284 2.66083L6.22004 5.03363L10.9656 9.77924L13.3393 7.40644C14.6497 6.09586 14.6497 3.97141 13.3393 2.66083Z" fill="white" fill-opacity="0.8"/>
<path d="M2.66083 8.59284C1.35023 9.90344 1.35023 12.0287 2.66083 13.3393C3.97141 14.6497 6.09586 14.6497 7.40644 13.3393L9.77924 10.9656L5.03363 6.22004L2.66083 8.59284Z" fill="#3A3A3A"/>
</svg>
