<svg width="16" height="16" viewBox="0 0 16 16" fill="none" xmlns="http://www.w3.org/2000/svg">
<path d="M3.94489 0C1.77067 0 0 1.7704 0 3.94444V12.0551C0 14.2293 1.77067 16 3.94489 16C4.45245 16 7.99911 16 8.88889 16C12.0462 16 16 12.0462 16 8.88889C16 7.99911 16 4.5848 16 3.94444C16 1.7704 14.2293 0 12.0551 0H3.94489ZM3.94489 1.77778H12.0551C13.248 1.77778 14.2222 2.75227 14.2222 3.94444C14.2222 4.46969 14.2222 6.66578 14.2222 8C13.3627 8 12.2293 8 11.9449 8C9.77067 8 8 9.77067 8 11.9449V14.2222C6.63733 14.2222 4.36089 14.2222 3.94489 14.2222C2.752 14.2222 1.77778 13.248 1.77778 12.0551V3.94444C1.77778 2.75218 2.752 1.77778 3.94489 1.77778ZM11.9449 9.77778C12.1947 9.77778 13.2293 9.784 14.0613 9.784C13.512 11.5422 11.5413 13.5164 9.78311 14.0658L9.77778 11.9449C9.77778 10.752 10.752 9.77778 11.9449 9.77778Z" fill="#3A3A3A"/>
<path d="M3.94489 1.77778H12.0551C13.248 1.77778 14.2222 2.75227 14.2222 3.94444V8H11.9449C9.77067 8 8 9.77067 8 11.9449V14.2222H3.94489C2.752 14.2222 1.77778 13.248 1.77778 12.0551V3.94444C1.77778 2.75218 2.752 1.77778 3.94489 1.77778Z" fill="#3A3A3A"/>
</svg>
