<svg width="310" height="285" viewBox="0 0 310 285" fill="none" xmlns="http://www.w3.org/2000/svg">
<g filter="url(#filter0_f_317_1138)">
<path d="M263.993 200.692C263.993 221.99 215.015 239.256 154.597 239.256C94.1785 239.256 45.2 221.99 45.2 200.692C45.2 179.393 94.1785 162.127 154.597 162.127C215.015 162.127 263.993 179.393 263.993 200.692Z" fill="#FB5B6D" fill-opacity="0.11"/>
</g>
<g filter="url(#filter1_f_317_1138)">
<path d="M219.92 178.655C219.92 191.261 190.674 201.479 154.597 201.479C118.52 201.479 89.2734 191.261 89.2734 178.655C89.2734 166.05 118.52 155.832 154.597 155.832C190.674 155.832 219.92 166.05 219.92 178.655Z" fill="#7D3D44" fill-opacity="0.11"/>
</g>
<path d="M182.358 214.935L168.992 201.566C168.056 200.63 166.747 200.135 165.424 200.174C93.6483 202.269 58.8075 151.942 58.9145 117.461C59.12 51.2915 127.386 15.9342 191.134 45.8417C274.711 85.0518 243.819 180.729 196.643 193.843C194.764 194.366 193.272 195.856 192.933 197.778L190.348 212.417C189.684 216.179 185.06 217.636 182.358 214.935Z" fill="url(#paint0_linear_317_1138)"/>
<path d="M214.629 117.598C211.268 146.963 177.968 167.269 140.251 162.953C102.534 158.636 74.6834 131.331 78.0442 101.966C81.405 72.6007 114.705 52.2947 152.422 56.6114C190.138 60.928 217.989 88.2326 214.629 117.598Z" fill="url(#paint1_linear_317_1138)"/>
<g filter="url(#filter2_i_317_1138)">
<path d="M214.629 117.599C211.268 146.964 177.968 167.27 140.251 162.953C102.534 158.637 74.6834 131.332 78.0442 101.967C81.405 72.6012 114.705 52.2952 152.422 56.6118C190.138 60.9285 217.989 88.2331 214.629 117.599Z" fill="url(#paint2_linear_317_1138)"/>
</g>
<path d="M119.253 76.5085C121.773 70.1291 127.435 66.0617 133.207 67.0165C140.099 68.1565 144.537 76.0237 143.12 84.5893C141.703 93.1551 134.968 99.1764 128.076 98.0364C122.371 97.0926 118.351 91.5367 117.939 84.7922L130.082 83.1736L128.201 82.0146L119.253 76.5085Z" fill="url(#paint3_linear_317_1138)"/>
<path d="M157.03 82.8049C159.55 76.4255 165.212 72.3581 170.984 73.3129C177.876 74.4529 182.314 82.3201 180.898 90.8857C179.481 99.4515 172.745 105.473 165.853 104.333C160.148 103.389 156.128 97.8331 155.716 91.0886L167.859 89.47L165.978 88.311L157.03 82.8049Z" fill="url(#paint4_linear_317_1138)"/>
<path d="M144.336 102.274C160.52 104.343 161.307 106.704 157.994 115.788C156.73 119.255 145.567 123.996 140.622 123.996C136.123 123.996 126.398 113.787 126.964 110.482C125.891 102.275 128.151 100.206 144.336 102.274Z" fill="url(#paint5_linear_317_1138)"/>
<g filter="url(#filter3_f_317_1138)">
<path d="M143.167 103.958C147.008 104.615 149.749 107.327 149.289 110.015C148.829 112.704 145.343 114.351 141.502 113.694C137.662 113.037 134.921 110.325 135.381 107.637C135.84 104.949 139.326 103.301 143.167 103.958Z" fill="#FF3C3C" fill-opacity="0.19"/>
</g>
<g filter="url(#filter4_f_317_1138)">
<path d="M177.753 152.877C177.753 165.048 163.658 174.914 146.272 174.914C128.885 174.914 114.791 165.048 114.791 152.877C114.791 140.707 128.885 130.84 146.272 130.84C163.658 130.84 177.753 140.707 177.753 152.877Z" fill="#FC585B" fill-opacity="0.29"/>
</g>
<g filter="url(#filter5_f_317_1138)">
<path d="M229.696 133.988C229.696 146.159 215.602 156.025 198.215 156.025C180.829 156.025 166.734 146.159 166.734 133.988C166.734 121.818 180.829 111.952 198.215 111.952C215.602 111.952 229.696 121.818 229.696 133.988Z" fill="#F758FC" fill-opacity="0.29"/>
</g>
<g filter="url(#filter6_f_317_1138)">
<path d="M224.903 101.588C221.516 95.7241 218.394 84.3837 207.447 71.3658C195.372 60.1011 184.592 56.2826 176.87 51.6046C179.374 48.9207 199.643 52.8768 211.718 64.1415C227.859 79.1996 226.306 104.017 224.903 101.588Z" fill="white" fill-opacity="0.25"/>
</g>
<g filter="url(#filter7_f_317_1138)">
<path d="M219.439 85.3184C217.793 82.3209 214.338 77.42 208.901 70.8323C202.845 65.1823 199.369 62.4346 195.447 60.1406C196.8 58.6903 207.256 60.3644 213.312 66.0144C221.408 73.5672 220.121 86.56 219.439 85.3184Z" fill="white" fill-opacity="0.34"/>
</g>
<defs>
<filter id="filter0_f_317_1138" x="-4.95911e-05" y="116.927" width="309.193" height="167.528" filterUnits="userSpaceOnUse" color-interpolation-filters="sRGB">
<feFlood flood-opacity="0" result="BackgroundImageFix"/>
<feBlend mode="normal" in="SourceGraphic" in2="BackgroundImageFix" result="shape"/>
<feGaussianBlur stdDeviation="22.6" result="effect1_foregroundBlur_317_1138"/>
</filter>
<filter id="filter1_f_317_1138" x="68.8734" y="135.432" width="171.446" height="86.4475" filterUnits="userSpaceOnUse" color-interpolation-filters="sRGB">
<feFlood flood-opacity="0" result="BackgroundImageFix"/>
<feBlend mode="normal" in="SourceGraphic" in2="BackgroundImageFix" result="shape"/>
<feGaussianBlur stdDeviation="10.2" result="effect1_foregroundBlur_317_1138"/>
</filter>
<filter id="filter2_i_317_1138" x="77.7694" y="56.0332" width="137.134" height="107.499" filterUnits="userSpaceOnUse" color-interpolation-filters="sRGB">
<feFlood flood-opacity="0" result="BackgroundImageFix"/>
<feBlend mode="normal" in="SourceGraphic" in2="BackgroundImageFix" result="shape"/>
<feColorMatrix in="SourceAlpha" type="matrix" values="0 0 0 0 0 0 0 0 0 0 0 0 0 0 0 0 0 0 127 0" result="hardAlpha"/>
<feOffset/>
<feGaussianBlur stdDeviation="1.7"/>
<feComposite in2="hardAlpha" operator="arithmetic" k2="-1" k3="1"/>
<feColorMatrix type="matrix" values="0 0 0 0 0 0 0 0 0 0 0 0 0 0 0 0 0 0 0.34 0"/>
<feBlend mode="normal" in2="shape" result="effect1_innerShadow_317_1138"/>
</filter>
<filter id="filter3_f_317_1138" x="131.33" y="99.814" width="22.0089" height="18.0244" filterUnits="userSpaceOnUse" color-interpolation-filters="sRGB">
<feFlood flood-opacity="0" result="BackgroundImageFix"/>
<feBlend mode="normal" in="SourceGraphic" in2="BackgroundImageFix" result="shape"/>
<feGaussianBlur stdDeviation="2" result="effect1_foregroundBlur_317_1138"/>
</filter>
<filter id="filter4_f_317_1138" x="80.3905" y="96.4403" width="131.762" height="112.873" filterUnits="userSpaceOnUse" color-interpolation-filters="sRGB">
<feFlood flood-opacity="0" result="BackgroundImageFix"/>
<feBlend mode="normal" in="SourceGraphic" in2="BackgroundImageFix" result="shape"/>
<feGaussianBlur stdDeviation="17.2" result="effect1_foregroundBlur_317_1138"/>
</filter>
<filter id="filter5_f_317_1138" x="132.334" y="77.5517" width="131.762" height="112.873" filterUnits="userSpaceOnUse" color-interpolation-filters="sRGB">
<feFlood flood-opacity="0" result="BackgroundImageFix"/>
<feBlend mode="normal" in="SourceGraphic" in2="BackgroundImageFix" result="shape"/>
<feGaussianBlur stdDeviation="17.2" result="effect1_foregroundBlur_317_1138"/>
</filter>
<filter id="filter6_f_317_1138" x="172.87" y="46.7964" width="56.8562" height="58.958" filterUnits="userSpaceOnUse" color-interpolation-filters="sRGB">
<feFlood flood-opacity="0" result="BackgroundImageFix"/>
<feBlend mode="normal" in="SourceGraphic" in2="BackgroundImageFix" result="shape"/>
<feGaussianBlur stdDeviation="2" result="effect1_foregroundBlur_317_1138"/>
</filter>
<filter id="filter7_f_317_1138" x="191.547" y="55.746" width="32.3057" height="33.5554" filterUnits="userSpaceOnUse" color-interpolation-filters="sRGB">
<feFlood flood-opacity="0" result="BackgroundImageFix"/>
<feBlend mode="normal" in="SourceGraphic" in2="BackgroundImageFix" result="shape"/>
<feGaussianBlur stdDeviation="1.95" result="effect1_foregroundBlur_317_1138"/>
</filter>
<linearGradient id="paint0_linear_317_1138" x1="106.691" y1="39.8454" x2="195.498" y2="216.505" gradientUnits="userSpaceOnUse">
<stop stop-color="#F63033"/>
<stop offset="1" stop-color="#FF6E71"/>
</linearGradient>
<linearGradient id="paint1_linear_317_1138" x1="149.2" y1="84.7606" x2="140.251" y2="162.953" gradientUnits="userSpaceOnUse">
<stop stop-color="white"/>
<stop offset="1" stop-color="#FFE0E0"/>
</linearGradient>
<linearGradient id="paint2_linear_317_1138" x1="149.2" y1="84.761" x2="140.251" y2="162.953" gradientUnits="userSpaceOnUse">
<stop stop-color="white"/>
<stop offset="1" stop-color="#FFE0E0"/>
</linearGradient>
<linearGradient id="paint3_linear_317_1138" x1="133.199" y1="67.0156" x2="128.07" y2="98.0381" gradientUnits="userSpaceOnUse">
<stop stop-color="#624343"/>
<stop offset="1" stop-color="#8D4748"/>
</linearGradient>
<linearGradient id="paint4_linear_317_1138" x1="170.976" y1="73.312" x2="165.848" y2="104.335" gradientUnits="userSpaceOnUse">
<stop stop-color="#624343"/>
<stop offset="1" stop-color="#8D4748"/>
</linearGradient>
<linearGradient id="paint5_linear_317_1138" x1="144.333" y1="102.274" x2="140.619" y2="123.995" gradientUnits="userSpaceOnUse">
<stop stop-color="#CCA31B"/>
<stop offset="1" stop-color="#F2E1A7"/>
</linearGradient>
</defs>
</svg>
