<svg width="16" height="16" viewBox="0 0 16 16" fill="none" xmlns="http://www.w3.org/2000/svg">
<path d="M1.33325 1.66667C1.33325 1.29848 1.63173 1 1.99992 1C2.36811 1 2.66659 1.29848 2.66659 1.66667V4.15104C3.86221 3.06979 5.23508 1.99004 7.07088 1.73177C8.50216 1.53047 9.96022 1.79946 11.2252 2.4987C12.4902 3.19797 13.4938 4.28958 14.0846 5.60872C14.6753 6.92781 14.8213 8.40323 14.5006 9.8125C14.1798 11.2219 13.4094 12.4889 12.3059 13.4225C11.2025 14.3561 9.8257 14.9059 8.38273 14.9889C6.93966 15.072 5.50853 14.6837 4.30526 13.8828C3.10209 13.082 2.19185 11.9119 1.71151 10.5488C1.58917 10.2016 1.77124 9.82098 2.11841 9.69857C2.46563 9.57623 2.84626 9.75829 2.96867 10.1055C3.35293 11.1961 4.08155 12.1321 5.04419 12.7728C6.00682 13.4135 7.15143 13.724 8.30591 13.6576C9.46027 13.5911 10.5619 13.1517 11.4446 12.4049C12.3273 11.6581 12.9438 10.6443 13.2004 9.51693C13.457 8.3895 13.3403 7.20894 12.8678 6.15365C12.3952 5.09836 11.592 4.22545 10.58 3.66602C9.56796 3.10659 8.40154 2.89099 7.25643 3.05208C5.8611 3.24838 4.81726 4.02714 3.72453 5H5.99992C6.36811 5 6.66659 5.29848 6.66659 5.66667C6.66659 6.03486 6.36811 6.33333 5.99992 6.33333H1.99992C1.63173 6.33333 1.33325 6.03486 1.33325 5.66667V1.66667Z" fill="black"/>
</svg>
