<svg width="40" height="40" viewBox="0 0 40 40" fill="none" xmlns="http://www.w3.org/2000/svg">
<g opacity="0.6">
<rect width="39.6" height="39.6" rx="19.8" fill="#FFE1E1"/>
<path d="M20.0142 9.79883C14.4914 9.79883 10.0142 14.2758 10.0142 19.7988C10.0142 25.3218 14.4914 29.7988 20.0142 29.7988C25.537 29.7988 30.0142 25.3218 30.0142 19.7988C30.0142 14.2758 25.537 9.79883 20.0142 9.79883ZM20.0142 11.7988C24.4325 11.7988 28.0142 15.3808 28.0142 19.7988C28.0142 24.2168 24.4325 27.7988 20.0142 27.7988C15.5959 27.7988 12.0142 24.2168 12.0142 19.7988C12.0142 15.3808 15.5959 11.7988 20.0142 11.7988ZM17.0142 16.7988C16.4619 16.7988 16.0142 17.2468 16.0142 17.7988V18.7988C16.0142 19.3508 16.4619 19.7988 17.0142 19.7988C17.5665 19.7988 18.0142 19.3508 18.0142 18.7988V17.7988C18.0142 17.2468 17.5665 16.7988 17.0142 16.7988ZM23.0142 16.7988C22.4619 16.7988 22.0142 17.2468 22.0142 17.7988V18.7988C22.0142 19.3508 22.4619 19.7988 23.0142 19.7988C23.5665 19.7988 24.0142 19.3508 24.0142 18.7988V17.7988C24.0142 17.2468 23.5665 16.7988 23.0142 16.7988ZM17.2017 21.6428C16.9458 21.6428 16.6781 21.7288 16.483 21.9238C16.0926 22.3148 16.0922 22.9398 16.483 23.3298C17.4138 24.2598 18.6718 24.7988 20.0142 24.7988C21.352 24.7988 22.6154 24.2548 23.5454 23.3298C23.9372 22.9408 23.9348 22.3158 23.5454 21.9238C23.1561 21.5318 22.5309 21.5348 22.1392 21.9238C21.5801 22.4798 20.8183 22.7988 20.0142 22.7988C19.2073 22.7988 18.4487 22.4828 17.8892 21.9238C17.6938 21.7288 17.4576 21.6428 17.2017 21.6428Z" fill="#F63033"/>
</g>
</svg>
