<svg width="40" height="40" viewBox="0 0 40 40" fill="none" xmlns="http://www.w3.org/2000/svg">
<rect width="39.6" height="39.6" rx="19.8" fill="#FFECAC"/>
<path d="M19.4064 13.2742C21.3723 11.3083 24.5598 11.3083 26.5257 13.2742C28.4914 15.2401 28.4914 18.4268 26.5257 20.3926L20.5928 26.3255C18.627 28.2913 15.4403 28.2913 13.4744 26.3255C11.5085 24.3596 11.5085 21.1721 13.4744 19.2062L19.4064 13.2742ZM14.6608 20.3926C13.3502 21.7032 13.3502 23.8285 14.6608 25.1391C15.9714 26.4495 18.0959 26.4495 19.4064 25.1391L21.7792 22.7654L17.0336 18.0198L14.6608 20.3926ZM25.3393 14.4606C24.0287 13.15 21.9034 13.15 20.5928 14.4606L18.22 16.8334L22.9656 21.579L25.3393 19.2062C26.6497 17.8957 26.6497 15.7712 25.3393 14.4606Z" fill="#C88C13"/>
<path d="M14.6608 20.3926C13.3502 21.7032 13.3502 23.8285 14.6608 25.1391C15.9714 26.4495 18.0959 26.4495 19.4064 25.1391L21.7792 22.7654L17.0336 18.0198L14.6608 20.3926Z" fill="#C88C13"/>
</svg>
