<svg width="40" height="40" viewBox="0 0 40 40" fill="none" xmlns="http://www.w3.org/2000/svg">
<rect width="39.6" height="39.6" rx="19.8" fill="#E8F7D7"/>
<path d="M23.997 28.1724C26.3349 26.1274 27.9413 23.3203 28.5204 20.2695C29.0566 17.4478 28.164 14.5498 26.1327 12.5181C24.4941 10.8799 22.3163 9.97754 19.9999 9.97754C17.6826 9.97754 15.5048 10.8799 13.8671 12.5181C11.8359 14.5493 10.9423 17.4468 11.4785 20.2695C12.0585 23.3208 13.665 26.1274 16.0019 28.1729L16.8456 28.9106C17.7451 29.6968 18.872 30.0903 19.9999 30.0898C21.1279 30.0898 22.2558 29.6968 23.1552 28.9102L23.997 28.1724ZM21.8378 27.4053C20.791 28.3213 19.2109 28.3218 18.162 27.4048L17.3183 26.6675C15.3163 24.915 13.9404 22.5103 13.4433 19.8965C13.0312 17.7246 13.7177 15.4951 15.2812 13.9321C16.5419 12.6719 18.2167 11.9775 19.9999 11.9775C21.7822 11.9775 23.4579 12.6719 24.7187 13.9326C26.2812 15.4956 26.9677 17.7251 26.5556 19.8965C26.0595 22.5103 24.6835 24.915 22.6796 26.6675L21.8378 27.4053Z" fill="#3D9E35"/>
<path d="M19.5039 17.4805H22C22.5527 17.4805 23 17.0327 23 16.4805C23 15.9282 22.5527 15.4805 22 15.4805H21V14.7998C21 14.2476 20.5527 13.7998 20 13.7998C19.4473 13.7998 19 14.2476 19 14.7998V15.5297C17.8599 15.7554 17 16.7327 17 17.918C17 19.2495 18.123 20.3325 19.5039 20.3325H20.4961C20.7744 20.3325 21 20.5186 21 20.7476C21 20.9761 20.7744 21.1621 20.4961 21.1621H18C17.4473 21.1621 17 21.6099 17 22.1621C17 22.7144 17.4473 23.1621 18 23.1621H19V23.7998C19 24.3521 19.4473 24.7998 20 24.7998C20.5527 24.7998 21 24.3521 21 23.7998V23.113C22.1401 22.8875 23 21.9127 23 20.7476C23 19.416 21.877 18.3325 20.4961 18.3325H19.5039C19.2256 18.3325 19 18.1465 19 17.895C19 17.6665 19.2256 17.4805 19.5039 17.4805Z" fill="#3D9E35"/>
</svg>
