<svg width="22" height="22" viewBox="0 0 22 22" fill="none" xmlns="http://www.w3.org/2000/svg">
<path d="M9.17965 1.79004C5.12954 1.79004 1.84631 5.07355 1.84631 9.12339C1.84631 13.1732 5.12954 16.4567 9.17965 16.4567C10.8633 16.4567 12.4591 15.8783 13.6969 14.925L17.6874 18.9492C18.0455 19.3067 18.6472 19.3067 19.0052 18.9492C19.3632 18.5907 19.3632 17.9894 19.0052 17.631L14.987 13.6343C15.9411 12.3968 16.513 10.8073 16.513 9.12339C16.513 5.07355 13.2298 1.79004 9.17965 1.79004ZM9.17965 3.62338C12.2172 3.62338 14.6796 6.08555 14.6796 9.12339C14.6796 12.1612 12.2172 14.6234 9.17965 14.6234C6.14209 14.6234 3.67965 12.1612 3.67965 9.12339C3.67965 6.08555 6.14209 3.62338 9.17965 3.62338Z" fill="#A1A1A1"/>
</svg>
