<svg width="24" height="25" viewBox="0 0 24 25" fill="none" xmlns="http://www.w3.org/2000/svg">
<g filter="url(#filter0_d_180_206)">
<path d="M16.9907 2.92969C16.6357 2.92969 16.2687 3.12369 16.0847 3.49219C15.6477 4.36489 15.5137 4.65199 15.3347 4.92969C15.0437 5.37969 14.8047 5.55909 14.1787 5.80469C14.0367 5.86019 13.8697 5.92849 13.6787 5.99219C12.8327 6.27389 12.7567 7.43748 13.5537 7.83588C14.3977 8.25798 14.6297 8.39719 14.8657 8.55469C15.0897 8.70369 15.2167 8.83119 15.3657 9.05469C15.5237 9.29089 15.6627 9.52319 16.0847 10.3677C16.4527 11.1047 17.5287 11.1047 17.8967 10.3677C18.3187 9.52319 18.4587 9.29099 18.6157 9.05469C18.7647 8.83119 18.8927 8.70369 19.1157 8.55469C19.3517 8.39719 19.5847 8.25788 20.4287 7.83588C21.1657 7.46738 21.1657 6.39199 20.4287 6.02349C19.5847 5.60139 19.3517 5.46219 19.1157 5.30469C18.8927 5.15569 18.7647 5.02819 18.6157 4.80469C18.4587 4.56849 18.3187 4.33619 17.8967 3.49219C17.7127 3.12369 17.3457 2.92969 16.9907 2.92969ZM6.99073 4.92969C6.63573 4.92969 6.26874 5.12369 6.08474 5.49219C5.79974 6.06119 5.72573 6.22799 5.61573 6.39849C5.46073 6.63749 5.34573 6.72799 4.99073 6.86719C4.90173 6.90189 4.80073 6.95139 4.67873 6.99219C3.83273 7.27389 3.75673 8.43748 4.55373 8.83588C5.10073 9.10978 5.25573 9.17949 5.39673 9.27349C5.50973 9.34839 5.57173 9.41109 5.64673 9.52349C5.74073 9.66439 5.81074 9.81949 6.08474 10.3677C6.45274 11.1047 7.52873 11.1047 7.89673 10.3677C8.17073 9.81949 8.24074 9.66439 8.33473 9.52349C8.40973 9.41109 8.47174 9.34839 8.58473 9.27349C8.72573 9.17949 8.88073 9.10978 9.42873 8.83588C10.1657 8.46738 10.1657 7.39199 9.42873 7.02349C8.88073 6.74959 8.72573 6.67988 8.58473 6.58588C8.47174 6.51098 8.40973 6.44828 8.33473 6.33588C8.24074 6.19498 8.17073 6.03989 7.89673 5.49219C7.71273 5.12369 7.34573 4.92969 6.99073 4.92969ZM11.9907 10.9297C11.5927 10.9297 11.2057 11.1617 11.0537 11.6177C10.3527 13.7187 9.77973 14.2917 7.67873 14.9917C6.76673 15.2957 6.76673 16.5637 7.67873 16.8677C9.77973 17.5677 10.3527 18.1407 11.0537 20.2417C11.3567 21.1537 12.6247 21.1537 12.9287 20.2417C13.6287 18.1407 14.2017 17.5677 16.3037 16.8677C17.2147 16.5637 17.2147 15.2957 16.3037 14.9917C14.2017 14.2917 13.6287 13.7187 12.9287 11.6177C12.7767 11.1617 12.3887 10.9297 11.9907 10.9297Z" fill="url(#paint0_linear_180_206)"/>
</g>
<defs>
<filter id="filter0_d_180_206" x="0.997803" y="0.929688" width="22.9836" height="23.9961" filterUnits="userSpaceOnUse" color-interpolation-filters="sRGB">
<feFlood flood-opacity="0" result="BackgroundImageFix"/>
<feColorMatrix in="SourceAlpha" type="matrix" values="0 0 0 0 0 0 0 0 0 0 0 0 0 0 0 0 0 0 127 0" result="hardAlpha"/>
<feOffset dy="1"/>
<feGaussianBlur stdDeviation="1.5"/>
<feComposite in2="hardAlpha" operator="out"/>
<feColorMatrix type="matrix" values="0 0 0 0 1 0 0 0 0 0.45098 0 0 0 0 0.458824 0 0 0 0.4 0"/>
<feBlend mode="normal" in2="BackgroundImageFix" result="effect1_dropShadow_180_206"/>
<feBlend mode="normal" in="SourceGraphic" in2="effect1_dropShadow_180_206" result="shape"/>
</filter>
<linearGradient id="paint0_linear_180_206" x1="5" y1="4.49988" x2="19" y2="23.9999" gradientUnits="userSpaceOnUse">
<stop stop-color="#F52A2D"/>
<stop offset="1" stop-color="#FF7375"/>
</linearGradient>
</defs>
</svg>
