<svg width="16" height="16" viewBox="0 0 16 16" fill="none" xmlns="http://www.w3.org/2000/svg">
<rect width="16" height="16" rx="8" fill="white" fill-opacity="0.8"/>
<path d="M4 1.77778C4.84267 1.77778 6.22222 3.15733 6.22222 4C6.22222 3.99136 6.20421 4.03473 6.17123 4.11417C6.16475 4.12978 6.15768 4.1468 6.15007 4.16507C6.09677 4.29298 6.01627 4.48318 5.91645 4.69423C5.91364 4.70025 5.90739 4.71287 5.8984 4.73075C5.88125 4.76491 5.85406 4.81839 5.82197 4.8815C5.72205 5.07805 5.57394 5.36937 5.52799 5.47201C5.31822 5.94134 5.29245 6.08888 5.36089 6.41688C5.73423 8.19555 7.8489 10.3209 9.61068 10.6391C9.92801 10.696 10.0062 10.6676 10.4996 10.4444L10.8019 10.3092C10.8426 10.291 10.885 10.272 10.9264 10.2535C11.1047 10.1738 11.2744 10.0979 11.3058 10.0836C11.5406 9.97415 11.7504 9.8859 11.8766 9.83284C11.9605 9.79751 12.0075 9.77778 12 9.77778C12.8427 9.77778 14.2222 11.1573 14.2222 12C14.2222 12.8427 12.8427 14.2222 12 14.2222C10.6116 14.2222 7.66311 12.608 5.97244 10.9164C5.78933 10.7342 5.26577 10.2107 5.08355 10.0276C3.39199 8.33689 1.77778 5.38844 1.77778 4C1.77778 3.15733 3.15733 1.77778 4 1.77778Z" fill="#FFA9AB"/>
<path fill-rule="evenodd" clip-rule="evenodd" d="M10.3309 8.58072L10.333 8.57969C10.3671 8.5631 10.3992 8.5475 10.428 8.53353C10.3988 8.54773 10.3656 8.56382 10.3309 8.58072ZM6.17123 4.11417C6.16475 4.12978 6.15768 4.1468 6.15007 4.16507C6.09677 4.29298 6.01627 4.48318 5.91645 4.69423C5.91364 4.70025 5.90739 4.71287 5.8984 4.73075C5.88125 4.76491 5.85406 4.81839 5.82197 4.8815C5.72205 5.07805 5.57394 5.36937 5.52799 5.47201C5.31822 5.94134 5.29245 6.08888 5.36089 6.41688C5.73423 8.19555 7.8489 10.3209 9.61068 10.6391C9.92801 10.696 10.0062 10.6676 10.4996 10.4444L10.8019 10.3092C10.8426 10.291 10.885 10.272 10.9264 10.2535C11.1047 10.1738 11.2744 10.0979 11.3058 10.0836C11.5406 9.97415 11.7504 9.8859 11.8766 9.83284C11.9605 9.79751 12.0075 9.77778 12 9.77778C12.8427 9.77778 14.2222 11.1573 14.2222 12C14.2222 12.8427 12.8427 14.2222 12 14.2222C10.6116 14.2222 7.66311 12.608 5.97244 10.9164C5.78933 10.7342 5.26577 10.2107 5.08355 10.0276C3.39199 8.33689 1.77778 5.38844 1.77778 4C1.77778 3.15733 3.15733 1.77778 4 1.77778" fill="#FFA9AB"/>
<path fill-rule="evenodd" clip-rule="evenodd" d="M4 0C2.176 0 0 2.176 0 4C0 5.93956 1.81245 9.31288 3.80534 11.3058C3.98845 11.488 4.51201 12.0115 4.69423 12.1947C6.68712 14.1876 10.0604 16 12 16C13.824 16 16 13.824 16 12C16 10.176 13.824 8 12 8C11.6356 8 11.2604 8.14489 10.5556 8.472C10.5391 8.47968 10.4918 8.50258 10.428 8.53353L10.333 8.57969L10.3309 8.58072C10.1432 8.67195 9.89534 8.7924 9.80534 8.83377C8.81334 8.56088 7.46934 7.19821 7.16623 6.1671C7.2113 6.06761 7.34266 5.80976 7.43452 5.62947L7.47188 5.55609C7.5008 5.49925 7.52167 5.45796 7.52799 5.44444C7.86844 4.72267 8 4.36889 8 4C8 2.176 5.824 0 4 0ZM6.22222 4C6.22222 3.15733 4.84267 1.77778 4 1.77778C3.15733 1.77778 1.77778 3.15733 1.77778 4C1.77778 5.38844 3.39199 8.33689 5.08355 10.0276C5.26577 10.2107 5.78933 10.7342 5.97244 10.9164C7.66311 12.608 10.6116 14.2222 12 14.2222C12.8427 14.2222 14.2222 12.8427 14.2222 12C14.2222 11.1573 12.8427 9.77778 12 9.77778C12.0075 9.77778 11.9605 9.79751 11.8766 9.83284C11.7504 9.8859 11.5406 9.97415 11.3058 10.0836C11.2744 10.0979 11.1047 10.1738 10.9264 10.2535L10.8019 10.3092L10.4996 10.4444C10.0062 10.6676 9.92801 10.696 9.61068 10.6391C7.8489 10.3209 5.73423 8.19555 5.36089 6.41688C5.29245 6.08888 5.31822 5.94134 5.52799 5.47201C5.57394 5.36937 5.72205 5.07805 5.82197 4.8815C5.85406 4.81839 5.88125 4.76491 5.8984 4.73075C5.90739 4.71287 5.91364 4.70025 5.91645 4.69423C6.01627 4.48318 6.09677 4.29298 6.15007 4.16507L6.17123 4.11417C6.20421 4.03473 6.22222 3.99136 6.22222 4Z" fill="#FFA9AB"/>
</svg>
