<svg width="16" height="16" viewBox="0 0 16 16" fill="none" xmlns="http://www.w3.org/2000/svg">
<mask id="mask0_384_2222" style="mask-type:alpha" maskUnits="userSpaceOnUse" x="0" y="0" width="16" height="16">
<rect width="16" height="16" fill="#D9D9D9"/>
</mask>
<g mask="url(#mask0_384_2222)">
<path d="M1.967 10.8654C1.75589 10.4098 1.59756 9.94314 1.492 9.46536C1.38645 8.98759 1.33367 8.4987 1.33367 7.9987C1.33367 7.07648 1.50867 6.20981 1.85867 5.3987C2.20867 4.58759 2.68367 3.88203 3.28367 3.28203C3.88367 2.68203 4.58923 2.20703 5.40034 1.85703C6.21145 1.50703 7.07811 1.33203 8.00034 1.33203C8.92256 1.33203 9.78923 1.50703 10.6003 1.85703C11.4114 2.20703 12.117 2.68203 12.717 3.28203C13.317 3.88203 13.792 4.58759 14.142 5.3987C14.492 6.20981 14.667 7.07648 14.667 7.9987C14.667 8.92092 14.492 9.78759 14.142 10.5987C13.792 11.4098 13.317 12.1154 12.717 12.7154C12.117 13.3154 11.4114 13.7904 10.6003 14.1404C9.78923 14.4904 8.92256 14.6654 8.00034 14.6654C7.50034 14.6654 7.01145 14.6126 6.53367 14.507C6.05589 14.4015 5.58923 14.2431 5.13367 14.032L1.83367 14.9987C1.57811 15.0765 1.35589 15.0209 1.167 14.832C0.978114 14.6431 0.922559 14.4209 1.00034 14.1654L1.967 10.8654ZM7.33367 8.66536V9.9987C7.33367 10.1876 7.39756 10.3459 7.52534 10.4737C7.65311 10.6015 7.81145 10.6654 8.00034 10.6654C8.18923 10.6654 8.34756 10.6015 8.47534 10.4737C8.60311 10.3459 8.667 10.1876 8.667 9.9987V8.66536H10.0003C10.1892 8.66536 10.3476 8.60148 10.4753 8.4737C10.6031 8.34592 10.667 8.18759 10.667 7.9987C10.667 7.80981 10.6031 7.65148 10.4753 7.5237C10.3476 7.39592 10.1892 7.33203 10.0003 7.33203H8.667V5.9987C8.667 5.80981 8.60311 5.65148 8.47534 5.5237C8.34756 5.39592 8.18923 5.33203 8.00034 5.33203C7.81145 5.33203 7.65311 5.39592 7.52534 5.5237C7.39756 5.65148 7.33367 5.80981 7.33367 5.9987V7.33203H6.00034C5.81145 7.33203 5.65311 7.39592 5.52534 7.5237C5.39756 7.65148 5.33367 7.80981 5.33367 7.9987C5.33367 8.18759 5.39756 8.34592 5.52534 8.4737C5.65311 8.60148 5.81145 8.66536 6.00034 8.66536H7.33367Z" fill="#FFA9AB"/>
</g>
</svg>
