<svg width="18" height="15" viewBox="0 0 18 15" fill="none" xmlns="http://www.w3.org/2000/svg">
<path d="M13.5 0C11.6154 0 10.0386 1.16721 9.34829 2.88471C9.07469 2.83596 8.8371 2.8125 8.55 2.8125C6.2721 2.8125 4.39561 4.34997 3.77731 6.57091C1.65241 6.70029 0 8.535 0 10.7812C0 13.1109 1.8135 15 4.05 15C5.6772 15 12.1428 15 13.05 15C14.7897 15 16.2 13.5309 16.2 11.7188C16.2 10.545 15.6645 9.67315 14.9562 9.10784C16.6419 8.53127 18 6.87 18 4.6875C18 2.09906 15.9849 0 13.5 0ZM13.5 1.875C14.9913 1.875 16.2 3.13406 16.2 4.6875C16.2 6.24094 14.9778 7.51408 13.4865 7.51408C13.3011 5.73376 12.393 4.37061 11.0421 3.50904C11.4147 2.58561 12.3903 1.875 13.5 1.875ZM8.55 4.6875C10.2897 4.6875 11.7 6.15656 11.7 7.96875C11.7 8.29875 11.7 8.74594 11.7 9.375C11.7 9.8925 12.1032 10.3125 12.6 10.3125C12.6072 10.3125 12.7683 10.3125 13.05 10.3125C13.7952 10.3125 14.4 10.9425 14.4 11.7188C14.4 12.495 13.7952 13.125 13.05 13.125C12.1428 13.125 5.6772 13.125 4.05 13.125C2.8071 13.125 1.8 12.0759 1.8 10.7812C1.8 9.48656 2.8071 8.4375 4.05 8.4375C4.1211 8.4375 4.4244 8.4375 4.5 8.4375C4.9482 8.4375 5.337 8.10844 5.4 7.64626C5.6349 5.93344 6.93 4.6875 8.55 4.6875Z" fill="#3A3A3A"/>
<path d="M13.5 1.875C14.9913 1.875 16.2 3.13406 16.2 4.6875C16.2 6.24094 14.9778 7.51408 13.4865 7.51408C13.3011 5.73376 12.393 4.37061 11.0421 3.50904C11.4147 2.58561 12.3903 1.875 13.5 1.875Z" fill="white" fill-opacity="0.8"/>
<path d="M8.55 4.6875C10.2897 4.6875 11.7 6.15656 11.7 7.96875V9.375C11.7 9.8925 12.1032 10.3125 12.6 10.3125H13.05C13.7952 10.3125 14.4 10.9425 14.4 11.7188C14.4 12.495 13.7952 13.125 13.05 13.125H4.05C2.8071 13.125 1.8 12.0759 1.8 10.7812C1.8 9.48656 2.8071 8.4375 4.05 8.4375H4.5C4.9482 8.4375 5.337 8.10844 5.4 7.64626C5.6349 5.93344 6.93 4.6875 8.55 4.6875Z" fill="#3A3A3A"/>
</svg>
